<?xml version="1.0" encoding="UTF-8"?>
<svg id="Layer_1" xmlns="http://www.w3.org/2000/svg" version="1.1" viewBox="0 0 595 194">
  <!-- Generator: Adobe Illustrator 30.0.0, SVG Export Plug-In . SVG Version: 2.1.1 Build 123)  -->
  <defs>
    <style>
      .st0 {
        fill: #fff;
      }
    </style>
  </defs>
  <path class="st0" d="M85.3,193.8c-1.1,0-2.1-.3-3.1-.8L3.2,148.5c-2-1.1-3.2-3.1-3.2-5.4V6.2C0,2.8,2.7,0,6.2,0h158.1c3.4,0,6.2,2.7,6.2,6.2v136.9c0,2.2-1.3,4.3-3.2,5.4l-79,44.5c-1,.6-1.9.8-3,.8ZM12.5,139.6l72.8,41,72.9-41V12.4H12.5v127.2Z"/>
  <path class="st0" d="M85.3,131.9c-1.1,0-2.1-.3-3.1-.8l-25-14.2c-2-1.1-3.2-3.1-3.2-5.4v-26h12.4v22.3l18.9,10.6,22-12.4,6.1,10.8-25,14.2c-1.1.6-2,.9-3.1.9Z"/>
  <path class="st0" d="M85.3,162.9c-1.1,0-2.1-.3-3.1-.8l-52.1-29.3c-2-1.1-3.2-3.2-3.2-5.4V60.3c0-3.4,2.7-6.2,6.2-6.2h76.4v12.4H39.3v57.4l45.8,25.8,45.8-25.8v-26.9h12.6v30.3c0,2.2-1.3,4.3-3.2,5.4l-52.1,29.3c-.9.7-1.8.9-2.9.9Z"/>
  <path class="st0" d="M143.5,73.3h-12.4v-33.8H48.9v-12.4h88.3c3.4,0,6.2,2.7,6.2,6.2v40h.1ZM229.3,86.1c0-26.5,19.7-46.9,46.8-46.9,16.3,0,30.7,8.1,38.5,20.9l-17.7,10.3c-4-6.9-11.8-11.1-20.8-11.1-15.9,0-26.2,10.7-26.2,26.8s10.3,26.8,26.2,26.8c9.1,0,17-4.1,20.8-11.1l17.7,10.3c-7.6,12.7-22.1,20.8-38.5,20.8-27.1,0-46.8-20.3-46.8-46.8ZM491.8,112.8v20h-60.8V39.2h60.8v20h-39.4v16h34.7v20.3h-34.7v17.1h39.4v.2ZM390.4,98.6c10.3-5.2,17.3-15.8,17.3-27.2,0-17.9-14.3-32.2-32-32.2h-37.5v93.7h21.4v-30.7h10.2l17.6,30.7h23l-20-34.3ZM375.6,83.4h-16v-24.1h16c5.8,0,10.6,5.3,10.6,12.1s-4.8,12-10.6,12ZM549.4,39.2h-34.4v93.4h34.4c25.7,0,45.4-20.3,45.4-46.8s-19.6-46.6-45.4-46.6ZM549.4,112.8h-13v-53.5h13c14.6,0,24.8,10.6,24.8,26.7.1,16-10,26.8-24.8,26.8Z"/>
</svg>