<?xml version="1.0" encoding="UTF-8"?>
<svg id="Layer_1" xmlns="http://www.w3.org/2000/svg" version="1.1" viewBox="0 0 3840 2160">
  <!-- Generator: Adobe Illustrator 30.0.0, SVG Export Plug-In . SVG Version: 2.1.1 Build 123)  -->
  <defs>
    <style>
      .st0 {
        fill: #fff;
      }
    </style>
  </defs>
  <path class="st0" d="M2212.13,1307.23c-.55-1.98-6.09-.91-9.06-5.3-2.34-3.46-4.38-16.46-4.81-21.19-3.91-42.41,3.04-106.72-18.61-143.39-11.74-19.89-36.89-36.09-59.65-39.37,8.86-9.27,21.75-13.15,31.83-21.15,42.78-33.94,50.27-98.82,37.24-148.9-20.9-80.34-103.22-90.89-173.99-96.01l-263.08.08v496h158v-169c0-.21,2.79-3,3-3h68c7.65,0,29.61,5.51,36.8,9.2,33.87,17.4,21.79,85.79,24.23,117.77,1.13,14.69,6.58,30.28,7.97,45.03h162c-1.07-5.77,1.47-15.89.13-20.77ZM2040.41,1025.41c-8.57,15.54-28.64,15.02-43.49,16.51-2.52.25-5.29,2.08-5.92,2.08h-81v-90h87c2.3,0,22.66,3.67,25.44,4.56,25.41,8.14,29.36,46.17,17.97,66.85Z"/>
  <path class="st0" d="M2742,1022h-152c-3.52-40.06-24.15-72.36-66.93-76.07-43.36-3.76-75.95,6.45-94.04,48.11-26.11,60.13-24.96,207.21,60.44,219.49,60.77,8.74,98.26-18.57,104.52-79.52h149c2.06,0,3.1,4.66,3.09,6.89-.13,33.38-20.25,85.38-39.23,112.97-79.01,114.9-292.6,113.46-386.02,17.29-92.56-95.29-92.34-296.04,5.13-388.18,70.4-66.55,191.48-78.62,280.9-48.85,82.44,27.45,134.27,101.45,135.13,187.87Z"/>
  <path class="st0" d="M3734,1022h-154c-2.96-60.13-44.13-82.7-100.78-75.78-91.87,11.23-91.2,194.24-40.29,245.84,24.72,25.05,73.91,29.39,104.43,14.3,27.17-13.44,38.6-43.65,40.64-72.36h152c-1.97,97.51-64.69,176.68-159.9,199.1-139.7,32.9-287.47-22.57-323.51-170.69-27.56-113.27.98-251.7,108.78-312.04,70.99-39.74,186.52-40.72,259.92-6.66s108.91,101.98,112.71,178.29Z"/>
  <polygon class="st0" points="3212 832 3212 964 3074 964 3074 1328 2914 1328 2914 964 2772 964 2772 832 3212 832"/>
  <rect class="st0" x="1494" y="832" width="162" height="496"/>
  <path class="st0" d="M792,1336h-264v-374h157c4.92,0,39.9,23.18,45.95,28.05,34.4,27.72,50.13,57.1,44.84,102.73-3.86,33.27-37.05,51.33-64.44,63.56-15.15,6.76-41.82,12.56-54.05,19.96-6.54,3.95-8.87,8.52-6.83,16.2,1.06,4,22.89,27.79,27.48,32.55,21.82,22.61,46.6,42.96,69.11,64.89,15.33,14.94,30.54,30.23,44.95,46.05Z"/>
  <path class="st0" d="M988,792c2.73,5.3,11.22,5.65,16.94,6.07,31.39,2.31,65.22-4.98,97.07-2.08,3.69,176.93-25.08,354.85-93.07,517.95-17.45,41.87-38.34,82.26-59.95,122.05-2.38-1.29-.53-5.9-.07-8.07,6.51-30.21,21.89-64.73,30.1-95.9,37.36-141.82,47.52-290.96,26.36-436.41-4.66-32.02-11.85-63.7-17.47-95.53-51.87,3.46-111.68-6.05-162.41,2.41-180.5,30.07-407.24,137.55-539.53,264.47-4.25,4.08-10.63,8.41-9.97,15.03-2.01,5.44-6.38,3.57-6-2,.65-4.23-.62-7.01-2.32-10.67-6.44-13.85-52.99-82.38-51.84-90.15,143.98-84.33,303.17-146.98,469.44-170.9,31.2-4.49,64.29-8.49,95.74-10.26,17.07-.96,40.3,2.47,55.99-.05,4.58-.73,4.67-3.9,4.98-3.97,47.09,2.67,98.7,5.39,146-2Z"/>
  <path class="st0" d="M1202,1124c19.1,21.39,45.79,78.37,56.94,106.06,47.55,118.12,49.58,261.76-70.32,335.55-90.76,55.86-209.27,41.18-304.62,4.38-9.46,1.55-14.05-6.35-4-8l65.99-121.14c40.18,9.08,85.8,12.48,127.08,9.21,59.5-4.71,130.12-67.25,149.5-122.5,22.84-65.13-1.98-140.44-26.57-201.57-3.33-11.21.2-11.48,6-2Z"/>
  <path class="st0" d="M276,1082l68,125.97c-10.2,2.78-19.77,14.12-27.03,22.01-56.19,61.04-81.98,133.9-55.99,216.05,32.57,102.97,146.91,128.54,241.04,142.98-13.29,3.74-27.32,3.33-41.1,3.08-163.65-2.97-378.61-73.06-352.66-276.83,12.86-101.01,85.5-175.41,161.74-235.26l6,2Z"/>
  <path class="st0" d="M988,792c.29,7.06,1.17,5.49-4.9,6.01-31.31,2.63-106.11,3.91-136.14.14-3.82-.48-4.38-4.28-4.95-4.15-16.1-77.03-63.38-150.46-140.93-176.07-80.77-26.67-141.97.88-201.1,55.04-15.48,14.18-33.51,40.36-47.97,51.03-9.7,11.45-10,2.71-4-6,67.91-120.88,195.59-262.64,351.03-210.03,104.53,35.38,155.89,132.9,179.6,234.4,2.68,11.49,5.53,42.2,9.37,49.63Z"/>
  <path class="st0" d="M906,962v374h-57l-136.99-139.01c49.46-12.84,102.84-47.37,109.43-102.55,5.59-46.78-8.64-84.69-43.42-115.46l-22.02-16.98h150Z"/>
  <path class="st0" d="M880,1562l-2.01,5.97c2.65-.68,4.23,1.34,6.01,2.03l-8.7,2.43c-16.76,26.06-30.13,59.18-47.63,84.23-8.13,11.64-13.36,4.93-24.28-1.05-152.38-83.47-312.97-229.66-411.85-372.16-10.44-15.04-37.95-53.64-43.52-68.49-.68-1.83-.17-4.45,1.97-1.97,43.64,47.08,87.17,94.19,135.97,136.04,93.14,79.87,208.66,148.76,323.5,192.5,22,8.38,47.34,18.61,70.53,20.47Z"/>
  <path class="st0" d="M448,718l-1.98,10c.36.46,4.79-3.12,5.98-4l-23.98,32c4.28-11.34,9.78-22.86,15.59-33.49,1.37-2.51,4.02-3.84,4.39-4.51Z"/>
  <path class="st0" d="M1202,1124c-.61-.68-5.74-4.29-5.98-4l-.02,6c-3.98-9.89-10.07-19.25-11.98-30,7.21,7.66,14.7,18.02,17.98,28Z"/>
</svg>