<?xml version="1.0" encoding="UTF-8"?>
<svg id="Layer_1" xmlns="http://www.w3.org/2000/svg" version="1.1" viewBox="0 0 1280 720">
  <!-- Generator: Adobe Illustrator 30.0.0, SVG Export Plug-In . SVG Version: 2.1.1 Build 123)  -->
  <defs>
    <style>
      .st0 {
        fill: #fff;
      }
    </style>
  </defs>
  <path class="st0" d="M1107.35,350.71l10.4-18.75c11-13.3,26.1-16.52,41.93-9.6,36.3,15.85,17.94,80.74,23.13,111.62.84,5.01,5.22,11.29,9.62,13.76,7.53,4.22,14.92-8.04,15.87-14.86,2.14-15.43,1.43-53.64.16-69.9-.38-4.91-1.68-14.5-6.57-16.75-2.87-1.32-8.11.34-7.73-4.56l42.24-23.24,3.1,1.84v114.01c0,4.41,9.01,14.98,14.25,14.92.75.98-1.24,3.87-1.94,3.87h-112.72c-.77,0-2.64-2.92-1.94-3.87,9.31-1.93,13.5-9.88,14.3-18.75,1.82-20.19,1.77-60.16-.07-80.36-2.1-23-18.38-28.35-31.64-9.66-13.79,19.44-15.18,69.21-12.24,92.41.58,4.57,2.35,9.21,5.7,12.44,1.15,1.12,10.44,5.32,7.14,7.16l-68.07.74c-63.59-2.9-38.1-81.55-43.37-123.2l-10.38-.63c-4.14-4.56-2.59-7.86,1.38-11.6,4.91-4.62,28.26-20.61,34.49-23.81,1.31-.67,5.6-2.67,5.6.42v26.56h18.14l1.11,5.56c-1.33,5.82-14.56,2.83-19.25,3.51v84.86c0,2.26,2.7,11.68,3.66,14.48,4.23,12.19,10.93,15.09,22.71,18.36,6.78-4.34,9.3-12.23,9.95-19.83,2.32-27.1,2.46-80.61-.07-107.56-.39-4.15-1.9-11.76-4.55-14.89s-11-3.15-9.68-5.85c1.67-3.42,36-19.24,41.4-23.42l3.94,1.38v73.2Z"/>
  <path class="st0" d="M580.68,453.07c-5.07-1.42-2.78-13.94-3.25-18.13-3.04,2.17-5.59,7.48-8.22,9.9-19.84,18.28-68.38,10.22-71.95-19.77-5.34-44.84,47.22-41.19,72.9-55.08,9.98-5.4,7.7-10.49,5.63-20.87-2.85-14.34-9.05-21.94-24.92-20.44-21.51,2.03-14.72,27.84-26.92,33.96-19.98,10.03-31.57-19.4-11.72-33.74,16.37-11.82,53.35-13.15,71.26-4.34,37.87,18.61,20.59,75.51,25.15,108.3.97,6.96,5.41,13.68,12.18,15.85,6.5-1.71,11.27-7.95,12.21-14.56,1.47-10.38,1.44-72.12-1.11-80.29-2.37-7.61-6.36-7.83-13.03-10.28l42.7-24.72,2.64,1.39v33.04l12.96-23.97c10.49-9.44,19.9-12.77,33.69-9.08,46.3,12.38,23.31,81.68,30.09,115.03.37,1.81,3.58,8.04,4.85,9.4.52.55,14.22,8.39,7.16,8.39h-57.66l.81-3.98c10.01-3.15,12.79-12.95,13.5-22.52,1.49-20.03,1.52-53.8-.22-73.74-.77-8.81-2.46-22.25-13.39-22.95-25.77-1.65-30.93,45.91-31.85,64.18-.61,12.05-1.86,41.11,5.86,49.98,3.67,4.22,9.37,3.93,8.46,9.03h-97.82ZM577.44,372.74l-30.72,15.28c-24.77,11.63-27.29,58.48,6.3,56.53,10.31-.6,16.81-5.93,20.78-15.2.88-2.05,3.64-10.37,3.64-11.91v-44.7Z"/>
  <path class="st0" d="M805.21,318.72c20.34-1.36,55.18,6.86,56.97,31.75.78,10.86-4.98,21.39-17.09,19.63-16.92-2.46-9.01-38.14-31.3-41.29-19.5-2.75-31.12,14.42-16.73,28.38,16.57,16.08,66.37,28.63,72.59,53.09,13.98,55.08-108.91,59.18-115.65,9.42-1.69-12.47,4.34-23.76,18.42-21.01,10.61,2.07,12.4,27,17.73,35.39,14.56,22.9,66.74,5.36,43.89-17.98-12.12-12.38-40.07-20.52-55.65-32.46-38.45-29.46-15.43-62.1,26.83-64.92Z"/>
  <path class="st0" d="M959.01,453.07c-5.07-1.42-2.78-13.95-3.25-18.14-8.8,10.61-16.15,17.81-30.59,19.28-28.81,2.93-57.7-13.35-48.49-45.9,7.7-27.19,50.83-27.69,70.91-37.92,10.64-5.42,9.02-10.13,6.56-21.29-3.46-15.69-11.58-23.58-28.53-20.11-17.5,3.58-11.48,28.98-25.27,34.31-20.68,8-28.46-22.11-9.28-35.17,16.28-11.09,53.26-12.15,70.76-3.55,38.52,18.93,19.41,78.35,25.34,110.7.55,3.03,3.46,7.86,5.63,9.92.48.46,13.16,7.88,6.37,7.88h-40.16ZM955.77,372.74l-38.25,20.7c-12.39,9.27-15.64,35.12-4.38,45.89,7.78,7.44,25,6.73,32.77-.66,3.96-3.76,9.86-16.03,9.86-21.24v-44.7Z"/>
  <path class="st0" d="M151.18,296.3c.69,3.12-.53,2.1-1.69,2.89-5.82,3.98-10.92,6.96-12.48,14.68-3.02,37.64,4.45,82.01-1.71,118.78-7.5,44.72-82.13,54.41-103.58,12.26-8.81-17.31,1.48-45.08,21.49-33.15,13.98,8.34.91,57.54,34.56,47.21,9.77-3,16.04-24.54,16.82-33.71,2.9-33.92-2.25-71.91-.06-106.27-1.12-11.2-4.73-12.36-12.05-19.04-1.27-1.15-2.77-1.14-2.18-3.65h60.89Z"/>
  <path class="st0" d="M188.11,386.99c-3.32,1.03-.88,12.82-.29,15.84,6.59,33.9,40.04,44.47,65.74,22.4,6.57-5.64,9.36-13.3,16.16-17.53,2.74-.49,2.15,1.29,1.97,3.26-1.92,20.86-24.98,40.51-45.04,43.08-83.71,10.72-94.37-113.21-31.41-132.47,27.93-8.55,58.09,2.79,69.29,30.48,2.31,5.71,9.54,34.96.03,34.96h-76.44ZM237.99,377.92c-.9-15.24-3.08-48.63-23.96-49.35-21-.72-26.97,33.36-26.57,49.35h50.53Z"/>
  <path class="st0" d="M306.66,386.99c-.27,27.43,11.27,51.25,42.16,49.27,18.14-1.16,29.92-15.28,40.13-28.53,4.08-1.65,1.05,9.84.7,11.07-5.34,18.38-26.07,33.66-44.78,35.55-52.52,5.32-77.99-42.8-67.4-89.43,14.94-65.83,108.09-59.33,111.96,7.35.17,2.94-.42,14.72-4.38,14.72h-78.39ZM357.19,377.92c1.88-14.67-3.88-48.74-22.66-49.35-22.28-.72-26.36,32.88-27.87,49.35h50.53Z"/>
  <path class="st0" d="M441.4,320.91c-2.32,6.18-9.98,5.56-11.42,13.94,4.08,23.5,16.69,45.78,23.1,68.98,1.79-.14,2.05-1.89,2.64-3.17,5.07-11.06,19.83-48.12,21.65-58.67.59-3.42.76-7.45-.27-10.78-1.6-5.17-7.7-5.38-8.49-10.29h37.57c-2.06,5.9-10.8,7.87-14.25,13.61-17.94,37.4-30,77.76-45.64,116.31-2.47,4.38-5.14,5.37-7.57.38-15.82-32.55-24.54-73.33-39.84-106.56-1.33-2.89-3.08-6.9-4.85-9.4-3.93-5.52-11.31-8.46-13.52-14.33h60.89Z"/>
  <path class="st0" d="M1201.95,252.24l5.93-10.24c11.78-16.74,38.02-11.48,39.48,9.55,1.73,24.83-25.06,48.05-44.78,58.99-19.17-10.6-44.43-32.63-44.78-56.32-.44-28.93,39.39-28.76,44.15-1.98Z"/>
</svg>