<?xml version="1.0" encoding="UTF-8"?>
<svg id="Layer_1" xmlns="http://www.w3.org/2000/svg" version="1.1" viewBox="0 0 2270.25 597.75">
  <!-- Generator: Adobe Illustrator 30.0.0, SVG Export Plug-In . SVG Version: 2.1.1 Build 123)  -->
  <defs>
    <style>
      .st0 {
        fill: #fff;
      }
    </style>
  </defs>
  <path class="st0" d="M51.3,110.67c-3.06,4.29-6.32,8.58-10.7,11.66v-11.66h10.7Z"/>
  <polygon class="st0" points="763.15 288.42 925.56 288.42 925.56 152.43 976.13 152.43 976.13 478.79 925.56 478.79 925.56 331.15 763.15 331.15 763.15 478.79 711.61 478.79 711.61 152.43 761.69 152.43 763.15 153.89 763.15 288.42"/>
  <path class="st0" d="M2043.9,478.79h-44.73l-3.4-35.95c-21.12,48.2-103.06,55.84-140.01,24.26-25.02-21.38-31-63.54-15.27-91.93,27.33-49.34,106.13-41.72,153.82-42.09v-24.77c0-11.69-7.7-29.12-17.04-36.4-16.49-12.86-56.67-12.23-72.89.97-8.54,6.95-10.91,15.35-14.61,25.23h-47.17c4-62.43,74.96-75.31,125.8-68.82,44.13,5.63,69.6,30.84,74.53,75.15,2.2,58,.39,116.26.98,174.34ZM1994.31,363.21c-34.13.61-112.87-7.69-112.87,44.2,0,51.34,71.24,53.72,97.81,21.87,7.09-8.51,15.06-27.33,15.06-38.38v-27.68Z"/>
  <path class="st0" d="M1139.33,228.42c89.21.59,131.78,80.98,115.42,161.99-13.2,65.34-64.72,99.53-130.31,95.17-145.97-9.72-147.21-258.23,14.89-257.16ZM1126.66,267.34c-78.89,8.45-80.63,173.43,3.62,180.36,49.73,4.09,73.67-34.34,76.36-79.11,3.19-53.04-17.23-107.98-79.98-101.26Z"/>
  <path class="st0" d="M543.17,228.48c72.37-4.1,123.22,45.79,127.59,116.77,5.25,85.37-46.55,146.61-134.67,140.33-140.33-10-145.98-248.43,7.08-257.1ZM539.27,267.32c-78.53,8.85-79.59,173.54,3.64,180.38,44.13,3.63,68.51-24.91,75.07-65.83,8.83-55.11-10.48-122.24-78.7-114.55Z"/>
  <path class="st0" d="M1638.38,298.13h-46.68c-.64-40.74-73.78-44.84-93.33-19.89-17.94,22.89,4.23,41.53,25.25,48.55,43.81,14.63,117.95,13.66,122.58,75.72,5.62,75.33-76.85,91.29-135.39,80.83-40.96-7.31-71.87-31.31-72.76-75.46h46.68c.24,9.43,4.68,20.35,11.16,27.22,24.45,25.93,105.43,22.04,102.6-22.83-1.22-19.28-19.03-26.82-35-32.06-40.26-13.23-105.29-13.41-117.01-64.77-12.07-52.93,29.85-80.97,76.78-86.15,49.81-5.5,111.93,9.15,115.11,68.84Z"/>
  <path class="st0" d="M286.15,152.43l1.51,3.35c-2.35,73.33,2.95,148.43,0,221.55-3.18,78.78-41.25,114.36-121.16,109.27-57.49-3.66-86.71-45.51-83.11-101.06h46.68c1.65,18.47,2.73,39.54,18.01,52.43,14.52,12.24,40.91,13.2,58.09,6.59,23.33-8.97,28.32-34.11,29.93-56.55l-.04-235.58h50.08Z"/>
  <path class="st0" d="M1754.11,161.18v73.82h55.43v36.91h-55.43v138.41c0,4.21,2.21,14.34,4.01,18.33,9.19,20.35,33.37,16.96,51.42,13.24v36.42c-6.73,2.71-16.35,3.98-23.79,4.41-44.59,2.58-74.76-13.02-80.26-59.79l-.99-151.02h-44.73v-36.91h44.73v-72.36l1.46-1.46h48.14Z"/>
  <path class="st0" d="M1360.25,161.18v73.82h54.94l1.46,1.46v35.45h-56.4l-.04,131.65c1.64,11.21.62,22.22,8.28,31.55,11.08,13.49,32.12,9.89,47.19,6.77v36.42c-6.73,2.71-16.35,3.98-23.79,4.41-50.46,2.91-77.49-17.3-80.31-68.48l.04-142.34h-45.71v-36.91h45.71v-72.36l1.46-1.46h47.17Z"/>
  <path class="st0" d="M2229.65,230.14v45.65c-24.31-5.57-52.96-1.76-69.54,18.44-11.98,14.6-14.65,33.69-16.07,51.94l.04,132.62h-48.62v-243.8h47.65v40.31c0,.87-1.81,3.53-.96,5.34.63.86,7.09-14.29,7.96-15.84,16.54-29.3,46.92-40.69,79.55-34.67Z"/>
  <rect class="st0" x="340.13" y="235" width="49.6" height="243.8"/>
  <path class="st0" d="M357.38,143.93c21.4-3.33,39.71,8.43,38.21,31.37-2.1,32.1-50.4,36.3-59.81,7.22-5.32-16.43,3.77-35.82,21.6-38.59Z"/>
</svg>