<?xml version="1.0" encoding="UTF-8"?>
<svg id="Layer_1" xmlns="http://www.w3.org/2000/svg" version="1.1" viewBox="0 0 1425.42 692">
  <!-- Generator: Adobe Illustrator 30.0.0, SVG Export Plug-In . SVG Version: 2.1.1 Build 123)  -->
  <defs>
    <style>
      .st0 {
        fill: #fff;
      }
    </style>
  </defs>
  <path class="st0" d="M1245.59,267.1c44.06-14.87,93.08-24.51,138.8-9.91,26.16,8.81,40.21,36.63,39.93,63.06.55,54.25,1.1,108.5-.83,162.76-15.7,0-31.39,0-46.82-.28-1.93-8.54-3.58-17.07-5.51-25.61-29.19,23.13-68.02,39.66-105.47,25.89-42.41-16.8-47.64-80.41-15.7-109.88,32.22-29.74,78.49-30.02,118.97-39.11-2.48-13.77-4.68-31.39-20.93-35.25-32.5-9.64-65.27,4.96-96.39,13.77-2.48-14.87-4.41-30.02-6.06-45.44M1297.37,392.95c-15.15,12.12-15.97,41.58,3.86,49.29,23.96,9.09,47.09-7.16,65.82-20.1,0-17.63,0-35.25-.28-52.88-23.68,4.13-50.4,6.88-69.4,23.68M23.96,158.6c26.16-1.65,52.6-1.65,79.04-1.1,31.12,79.04,51.22,162.48,84.82,240.69,27.81-79.86,53.43-160.28,80.69-240.14,26.16-.83,52.32-.83,78.49,0,7.71,108.5,18.73,217.01,23.41,325.51h-60.59c-7.16-77.38-10.46-155.32-18.18-232.71-31.12,76.01-53.15,155.87-81.52,232.98-19,.83-38,.55-57.01-.28-27.26-77.11-49.29-156.42-81.79-231.6-6.61,77.11-9.64,154.77-16.8,231.88-18.18,0-36.35,0-54.53-.28,5.23-108.78,16.52-216.73,23.96-324.96M923.66,183.11c18.18-3.86,36.9-6.33,55.35-7.99.55,26.16.55,52.32.55,78.76,15.15.28,30.57,1.1,45.99,1.38,3.03,14.87,5.51,30.02,7.71,45.16-17.9.83-35.53,1.65-53.15,1.93.28,39.66-2.75,79.59,1.38,119.24,5.78,19.28,30.84,13.77,45.99,17.35,3.03,15.15,5.23,30.57,6.88,45.99-28.92,3.03-61.41,6.88-87.3-9.64-17.07-11.29-22.31-32.5-23.13-51.5-2.2-40.21.55-80.41-1.1-120.62-10.46-1.1-21.21-2.2-31.67-3.3.28-14.6.83-28.92,1.38-43.51,10.19-.83,20.38-1.93,30.84-2.75-.55-23.68-.28-47.09.28-70.5M404.82,259.94c19.55-3.86,39.38-6.06,59.21-7.16,17.9,52.32,33.6,105.47,52.05,157.52,18.73-50.67,33.32-103,49.85-154.49,19-1.1,37.73-1.65,56.73-1.38-21.21,69.4-48.74,136.59-72.15,205.44-12.39,31.67-20.1,67.47-45.99,91.43-21.21,19.28-51.77,20.1-78.49,15.42-2.48-15.15-4.96-30.29-7.44-45.16,13.22-.28,26.44.55,39.38-1.65,17.63-6.06,33.05-27.26,25.06-45.99-25.61-71.6-53.7-142.1-78.21-213.98M659.56,254.71c15.97,0,31.95.28,47.64.55,2.2,9.91,4.13,19.83,6.33,29.74,24.51-20.1,53.7-39.66,87.3-34.15,29.19,1.1,52.32,27.54,52.88,55.9,1.38,58.66.55,117.59.28,176.25-18.18.28-36.35.55-54.25.83-5.23-53.43,1.1-107.13-2.75-160.28-2.48-22.03-29.74-27.54-46.82-18.73-14.6,7.16-34.15,17.35-33.05,36.35-1.1,47.37.55,94.73-.28,142.1-19.28.28-38.28.28-57.56-.28.28-76.28,0-152.29.28-228.3M1077.05,254.71c16.25,0,32.5,0,48.74.28,1.93,13.22,4.13,26.44,6.33,39.93,20.1-20.93,42.13-42.69,72.98-45.16,4.96,18.18,7.71,36.9,8.26,55.63-30.29,6.88-64.72,19.55-78.21,49.57-2.75,42.69.55,85.65-1.1,128.33-19,.28-38,.28-57.01-.28v-228.3Z"/>
</svg>