<?xml version="1.0" encoding="UTF-8"?>
<svg id="Layer_1" xmlns="http://www.w3.org/2000/svg" version="1.1" viewBox="0 0 2560 512">
  <!-- Generator: Adobe Illustrator 30.0.0, SVG Export Plug-In . SVG Version: 2.1.1 Build 123)  -->
  <defs>
    <style>
      .st0 {
        fill: #fff;
      }
    </style>
  </defs>
  <path class="st0" d="M0,9.82l55.46-1.04C119.52,7.57,205.03-.07,265.76,17.54c162.99,47.25,166.98,287.66,17.91,355.75-49.12,22.44-103.6,21.63-156.68,20.78v104.8H0V9.82ZM127,285.28c3.89-2.35,7.54-.1,11.46.04,62.97,2.34,120.48-22.05,115.53-94.35-4.49-65.54-69.74-82.68-125.33-73.2l-1.66,1.33v166.18Z"/>
  <path class="st0" d="M2560,351.15c-7.26,157.04-159.67,170.99-284.36,154.56-13.58-1.79-27.14-4.58-40.64-6.84v-119.77c40.32,11.01,83.55,17.17,125.54,15.01,25.71-1.32,74.1-10.87,69.37-45.37-1.9-13.84-17.27-20.64-28.67-25.29-71.37-29.14-150.84-34.08-171.95-122.81-20.89-87.79,31.94-174.08,119.69-194.34,38.82-8.96,99.31-4.86,139.5-.48,7.5.82,15.04,1.99,22.51,2.99v118.77c-37.97-8.46-78.33-15.3-117.22-8.71-34.74,5.88-64.59,37.04-25.79,62.12,64.21,29.3,153.22,33.65,181.76,109.02,6.58,17.38,10.18,38.86,10.25,57.14v3.99Z"/>
  <polygon class="st0" points="582 10.82 582 192.46 720 192.46 720 10.82 846 10.82 846 498.86 720 498.86 720 302.25 582 302.25 582 498.86 455 498.86 455 10.82 582 10.82"/>
  <path class="st0" d="M1913,394.07v104.8h-127V9.82c16.16-.25,32.37.32,48.54.04,67.77-1.17,155.77-11.39,220.23,8.68,159.3,49.6,162.77,285.2,16.91,353.75-50.12,23.55-104.32,22.56-158.68,21.78ZM1913,285.28c3.89-2.35,7.54-.1,11.46.04,61.62,2.29,118.32-20.87,115.59-91.41-2.61-67.39-68.48-85.86-125.38-76.14l-1.66,1.33v166.18Z"/>
  <polygon class="st0" points="1342 10.82 1342 389.08 1473 389.08 1473 498.86 1215 498.86 1215 10.82 1342 10.82"/>
  <rect class="st0" x="967" y="10.82" width="127" height="488.05"/>
  <rect class="st0" x="1537" y="10.82" width="127" height="488.05"/>
</svg>