<?xml version="1.0" encoding="UTF-8"?>
<svg id="Layer_1" xmlns="http://www.w3.org/2000/svg" xmlns:x="ns_extend;" version="1.1" viewBox="0 0 122.1 65">
  <!-- Generator: Adobe Illustrator 30.0.0, SVG Export Plug-In . SVG Version: 2.1.1 Build 123)  -->
  <defs>
    <style>
      .st0 {
        fill: #fff;
      }
    </style>
  </defs>
  <path class="st0" d="M6.6,51.9c-.2,2.6-.7,3.6-3.1,3.6H.7c-.4,0-.6-.1-.6-.6,0-4.5-.2-9.1.3-13.6.6-5.1,4.2-8.3,9.6-9,1.2-.2,2.3-.2,3.5-.2.5,0,.7.1.7.6,0,1.7-.1,3.4,0,5,0,.5-.2.7-.7.7-1,0-2-.1-3,.1-2.3.4-3.6,1.7-3.7,4,0,.4-.1.9-.1,1.3v4.9"/>
  <path class="st0" d="M71.7,52.2c0,2.2-1.6,3.8-3.7,3.8s-3.7-1.5-3.8-3.7c0-4.8,0-9.6.1-14.4,0-1.9,1.8-3.4,3.7-3.5,2,0,3.7,1.5,3.7,3.5.1,2.4,0,4.8,0,7.2"/>
  <path class="st0" d="M58.3,10.6c-1.8-1.5-3.3-2.9-4.8-4.2-.4-.3-.7-.1-1.1,0-1.7.4-3.4-.3-4.2-1.6-.8-1.3-.5-2.9.7-3.9,1.3-1.1,3.5-1.2,4.9-.2,1.4,1,1.8,2.7.9,4.1-.4.5-.2.8.2,1.1,1.7,1.4,3.4,2.9,5,4.3.3.2.6.4.9.5.8.3,1.3,1,1.1,1.8-.1.9-.7,1.5-1.6,1.5-2.9.1-5.8,0-8.7,0-1.1,0-1.8-.9-1.7-1.8,0-1,.8-1.7,2-1.7h5c.3.1.7.1,1.4.1Z"/>
  <path class="st0" d="M77.6,10.8h6.4c1.4,0,2.2.7,2.2,1.8,0,1-.9,1.7-2.2,1.7-2.7,0-5.4.1-8.1-.1-1-.1-1.6-.5-1.8-1.4-.2-.9.2-1.6,1.1-2,.3-.1.6-.3.8-.6,1.6-1.5,3.1-3,4.7-4.5.4-.4.5-.7.3-1.2-.6-1.5-.1-3,1.3-3.9,1.6-.7,3.7-.6,5,.6,1.1,1,1.4,2.5.6,3.8-.8,1.3-2.7,2.2-4.2,1.6-1.3-.5-1.9,0-2.6.7-1.1,1.1-2.2,2.1-3.3,3.1q-.1.1-.2.4Z"/>
  <path class="st0" d="M72.8,10.4c0,2.4-2.3,4.4-5,4.4s-5-2-5-4.4,2.4-4.5,5.1-4.4c2.8,0,5,2,4.9,4.4Z"/>
  <path class="st0" d="M44.7,53c1.9,2,2.6,2.5,4.2,2.9,4.8,1.2,9.2-.8,11.3-5.2.9-1.9,1.3-4,1.4-6v-2.6c.1-2.6-.8-5-2.5-7.1-.7-.8-1.4-1.6-2.6-1.7-3.1-1.5-6.3-1.9-9.7-1.1-4,.9-7.4,2.6-8.3,6.8-.2,1.1-.3,2.1-.3,3.2,0,3.5,0,7-.1,10.6,0,3.7-.1,7.4-.1,11.1,0,.4.1.6.6.6h2.8c1.8-.1,3-1.3,3-3M54.3,48.2c-.8,1.8-2.3,2.8-4.4,2.7-2.2,0-3.6-1.1-4.5-2.9-.6-1.2-.7-2.6-.7-3.9.1-1.5.1-2.9.7-4.2.8-1.9,2.2-2.9,4.4-3,2.1-.1,3.7.8,4.6,2.6,1.2,3,1.2,5.9-.1,8.7Z"/>
  <path class="st0" d="M97.7,28.4c0-1.4-1.2-2.6-2.7-2.8-.9-.1-1.8,0-2.8-.1-.7,0-.9.1-.9.8.1,1.7,0,3.4,0,5v3.6c-1.7-1.9-3.2-2.8-6.2-3.1-2-.2-3.9.3-5.6,1.2-.9.5-.8.6-1.2.9-1.2,1-2,2.3-2.8,3.7-.9,1.8-1.2,3.4-1.3,5.3-.1,1.8,0,3.6.4,5.3.8,3.5,2.5,6.4,6.5,7.5,2.6.7,5.2.9,7.8.2,5.7-1.4,8.3-3.5,8.5-9.2.4-6,.3-12.2.3-18.3ZM90.5,48.2c-.8,1.8-2.1,2.9-4.2,3s-3.8-.7-4.6-2.6c-1.3-2.8-1.4-5.7-.1-8.6.8-1.9,2.4-2.9,4.7-2.8,2.1.1,3.7,1.2,4.4,3.2.5,1.1.6,2.3.6,3.6-.1,1.4-.2,2.9-.8,4.2Z"/>
  <path class="st0" d="M36.3,38.4c0-2.9-1.4-4.9-4.3-5.9-3.2-1.1-6.5-1.2-9.8-.5-3,.6-5.1,2.4-6,5.3-.2.7-.1,1,.7.9,1.1-.1,2.3,0,3.4,0,1,0,2.1.2,2.8-.9.1-.2.5-.3.8-.4,1.7-.5,3.4-.4,5.1.2.7.2,1,.7,1.1,1.4s-.3,1.2-.8,1.5c-.8.5-1.7.7-2.7.9-1.9.3-3.9.4-5.7,1-1.9.6-3.7,1.3-4.7,3-2.8,4.7,0,10.3,5.7,11.1,2,.3,4,.1,5.9-.1,4.5-.5,7.7-2.9,8.2-6.7.3-2.5.2-4.4.3-6.2v-4.6ZM30.1,45.7c0,3.7-2.3,5.8-5.9,5.6-1.6-.1-2.6-.9-2.8-2.2-.3-1.5.4-2.7,1.8-3.3,1-.4,2.1-.6,3.2-.8.7-.2,1.4-.3,2.1-.5,1.6-.5,1.6-.6,1.6,1.2Z"/>
  <path class="st0" d="M79.6,33.1c-3.3,2.2-4.7,5.4-5.1,9.1,0,.3-.1.5-.1.8v-4.9c0-3.7-2.1-5.6-6-5.8-2.2-.1-4.2.3-5.6,2-.8,1-1.1,2.1-1.1,3.3,0,2.3,0,4.7-.1,7-.1-2.2-.1-4.3-.9-6.4-.8-2.1-2-3.9-4.1-5,0-3.7.1-7.5.1-11.2,0-3.2,2.5-5.6,5.9-5.7h11.2c3.5,0,5.9,2.6,5.9,5.8-.2,3.8-.1,7.4-.1,11Z"/>
  <path class="st0" d="M121.9,41.5c-.8-5.8-4.8-9.3-10.9-9.4-5.3-.1-9.1,2.2-10.7,6.4-.7,1.8-1,3.8-.9,5.6v1c.2,2.7.5,5.4,2.3,7.6,2.7,3.3,6.6,4.2,10.7,3.8,4.8-.5,7.8-3.1,9.1-7.5.7-2.5.8-5,.4-7.5ZM115.7,43.9c0,1.6-.2,3-.7,4.3-1.1,2.9-4.1,4-6.8,2.5-.9-.5-1.5-1.3-1.8-2.2-.8-2.4-1-4.9-.4-7.3.6-2.6,2.4-4,5-3.9,2.2.1,4,1.7,4.5,4.2.2.9.3,1.7.2,2.4Z"/>
  <g>
    <path class="st0" d="M64.2,58.3h2.1c.9,0,1.6.1,2.1.4.4.3.6.7.6,1.3,0,.4-.1.7-.3,1-.2.3-.4.4-.7.5h0c.4.1.7.3.9.5.2.3.3.6.3,1,0,.6-.2,1.1-.7,1.4-.4.3-1,.5-1.8.5h-2.5v-6.6h0ZM65.6,60.9h.8c.4,0,.7-.1.8-.2.2-.1.3-.3.3-.6s-.1-.4-.3-.6c-.2-.1-.5-.2-.9-.2h-.7v1.6h0ZM65.6,62.1v1.7h.9c.4,0,.7-.1.9-.2s.3-.4.3-.7c0-.6-.4-.8-1.2-.8h-.9Z"/>
    <path class="st0" d="M72.4,65v-6.7h1.4v6.7h-1.4Z"/>
    <path class="st0" d="M82.8,65h-1.6l-1.8-2.8-.6.4v2.4h-1.4v-6.7h1.4v3.1l.6-.8,1.8-2.3h1.6l-2.3,3,2.3,3.7Z"/>
    <path class="st0" d="M89.3,65h-3.9v-6.7h3.9v1.2h-2.4v1.5h2.3v1.2h-2.3v1.7h2.4v1.1Z"/>
    <path class="st0" d="M99.5,65h-1.4v-5.5h-1.8v-1.2h5.1v1.2h-1.8l-.1,5.5h0Z"/>
    <path class="st0" d="M108.3,65l-.5-1.6h-2.4l-.5,1.6h-1.5l2.4-6.7h1.7l2.4,6.7h-1.6ZM107.5,62.2c-.4-1.4-.7-2.3-.8-2.5-.1-.2-.1-.3-.1-.4-.1.4-.4,1.4-.9,2.9h1.8Z"/>
    <path class="st0" d="M118,65h-1.6l-1.6-2.5-1.6,2.5h-1.5l2.2-3.5-2.1-3.2h1.6l1.4,2.4,1.4-2.4h1.5l-2.1,3.3,2.4,3.4Z"/>
    <path class="st0" d="M120.7,65v-6.7h1.4v6.7h-1.4Z"/>
  </g>
</svg>