<?xml version="1.0" encoding="UTF-8"?>
<svg id="Layer_1" xmlns="http://www.w3.org/2000/svg" version="1.1" viewBox="0 0 2500 1067.83">
  <!-- Generator: Adobe Illustrator 30.0.0, SVG Export Plug-In . SVG Version: 2.1.1 Build 123)  -->
  <defs>
    <style>
      .st0, .st1 {
        fill: #fff;
        fill-rule: evenodd;
      }

      .st1 {
        fill-opacity: 0;
      }
    </style>
  </defs>
  <path class="st1" d="M0-716.09h2500V1783.91H0V-716.09Z"/>
  <path class="st0" d="M1505.61,351.5h-300.55v98.01h100.45v209.7h97.99v-209.7h102.11v-98.01h0ZM1799.28,658.41l-94.72-306.9h-119.27l-94.71,306.9h98l56.34-218.22,56.37,218.22h97.99ZM2099.33,351.5h-300.54v98.01h100.45v209.7h97.97v-209.7h102.11v-98.01h.01ZM2389.71,658.41l-94.74-306.9h-119.23l-94.74,306.9h98.04l56.34-218.22,56.33,218.22h98.01-.01ZM474.33,680.6c21.35-90.68,37.18-179.2,37.18-179.2,0,0,7.96-29.19-7.96-49.1-15.93-19.91-65.03-13.27-65.03-13.27,0,0-76.28.91-154.02,10.27-69.23,8.35-139.88,22.09-165.92,27.37-5.44,18.61-8.23,37.89-8.29,57.27,0,136.64,136.55,252.56,326.11,293.97,9.95-36.16,24.9-92.07,37.92-147.31h0Z"/>
  <path class="st0" d="M615.23,623.52c-.91-109.89,2.17-212.38,2.17-212.38,0,0-3.53-15.43,6.32-22.98,10.08-7.72,33.5-7.54,33.5-7.54,0,0,90.87,2.56,192.69,15.62,74.34,9.56,154.73,24.89,191.03,32.14-66.74-119.43-243.49-204.77-451.08-204.77s-385.66,86.03-451.8,206.15c31.83-6.41,118.35-23.28,198.02-33.51,101.83-13.06,192.67-15.62,192.67-15.62,0,0,23.45-.18,33.51,7.54,9.84,7.55,6.32,22.98,6.32,22.98,0,0,3.09,102.49,2.17,212.38-.73,84.23-3.32,172.56-4.9,220.3,7.95.26,15.94.4,24.01.4,10.17,0,20.25-.27,30.26-.69-1.57-47.83-4.15-135.98-4.88-220.03h-.01Z"/>
  <path class="st0" d="M901.5,449.28c-77.74-9.36-154.03-10.27-154.03-10.27,0,0-49.09-6.63-65.04,13.27-15.91,19.91-7.94,49.1-7.94,49.1,0,0,15.82,88.52,37.17,179.2,12.85,54.59,27.61,109.82,37.56,146.01,186.51-42.5,320.21-157.49,320.21-292.68,0-20.05-3.05-39.61-8.65-58.6-30.06-6-95.29-18.33-159.28-26.04h0Z"/>
</svg>